<?xml version="1.0" standalone="no"?><!DOCTYPE svg PUBLIC "-//W3C//DTD SVG 1.1//EN" "http://www.w3.org/Graphics/SVG/1.1/DTD/svg11.dtd"><svg t="1677070515821" class="icon" viewBox="0 0 1024 1024" version="1.1" xmlns="http://www.w3.org/2000/svg" p-id="30768" xmlns:xlink="http://www.w3.org/1999/xlink" width="200" height="200"><path d="M155.136 981.504c-13.312 0-24.064-10.752-24.064-24.064s10.752-24.064 24.064-24.064c48.64 0 88.064-39.424 88.064-88.064v-192c0-13.312 10.752-24.064 24.064-24.064s24.064 10.752 24.064 24.064v192c0 75.264-61.44 136.192-136.192 136.192zM860.672 981.504c-75.264 0-136.192-60.928-136.192-136.192v-192c0-13.312 10.752-24.064 24.064-24.064s24.064 10.752 24.064 24.064v192c0 48.64 39.424 88.064 88.064 88.064 13.312 0 24.064 10.752 24.064 24.064s-10.752 24.064-24.064 24.064z" fill="#333333" p-id="30769"></path><path d="M240.64 348.16c-65.536 0-118.784-53.248-118.784-118.784C121.856 163.84 175.616 110.592 240.64 110.592S359.936 163.84 359.936 229.376C359.936 294.912 306.176 348.16 240.64 348.16z" fill="#27C18F" p-id="30770"></path><path d="M240.64 134.656c52.224 0 94.72 42.496 94.72 94.72S292.864 324.096 240.64 324.096 145.92 281.6 145.92 229.376 188.416 134.656 240.64 134.656m0-48.128c-78.848 0-142.848 64-142.848 142.848S162.304 372.224 240.64 372.224c78.848 0 142.848-64 142.848-142.848S319.488 86.528 240.64 86.528z" fill="#333333" p-id="30771"></path><path d="M764.928 348.16c-65.536 0-118.784-53.248-118.784-118.784 0-65.536 53.248-118.784 118.784-118.784 65.536 0 118.784 53.248 118.784 118.784 0 65.536-53.248 118.784-118.784 118.784z" fill="#27C18F" p-id="30772"></path><path d="M764.928 134.656c52.224 0 94.72 42.496 94.72 94.72s-42.496 94.72-94.72 94.72-94.72-42.496-94.72-94.72c-0.512-52.224 41.984-94.72 94.72-94.72m0-48.128c-78.848 0-142.848 64-142.848 142.848s64 142.848 142.848 142.848c78.848 0 142.848-64 142.848-142.848s-64.512-142.848-142.848-142.848z" fill="#333333" p-id="30773"></path><path d="M504.32 520.704m-386.56 0a386.56 386.56 0 1 0 773.12 0 386.56 386.56 0 1 0-773.12 0Z" fill="#FFBA40" p-id="30774"></path><path d="M504.32 931.328c-226.304 0-410.624-184.32-410.624-410.624s184.32-410.624 410.624-410.624 410.624 184.32 410.624 410.624-184.32 410.624-410.624 410.624z m0-773.12c-199.68 0-362.496 162.816-362.496 362.496s162.816 362.496 362.496 362.496 362.496-162.816 362.496-362.496-162.816-362.496-362.496-362.496z" fill="#333333" p-id="30775"></path><path d="M504.32 788.992c-147.968 0-267.776-120.32-267.776-267.776s120.32-267.776 267.776-267.776 267.776 120.32 267.776 267.776-119.808 267.776-267.776 267.776z" fill="#27C18F" p-id="30776"></path><path d="M504.32 276.992c134.656 0 244.224 109.056 244.224 244.224s-109.056 244.224-244.224 244.224-244.224-109.056-244.224-244.224 109.568-244.224 244.224-244.224m0-48.128c-160.768 0-291.84 131.072-291.84 291.84s131.072 291.84 291.84 291.84 291.84-131.072 291.84-291.84-130.56-291.84-291.84-291.84z" fill="#333333" p-id="30777"></path><path d="M548.864 589.312c-6.144 0-12.288-2.56-16.896-7.168l-44.544-44.544c-4.608-4.608-7.168-10.752-7.168-16.896v-143.36c0-13.312 10.752-24.064 24.064-24.064s24.064 10.752 24.064 24.064v133.12l37.376 37.376c9.216 9.216 9.216 24.576 0 33.792-4.608 5.632-10.752 7.68-16.896 7.68z" fill="#333333" p-id="30778"></path><path d="M504.32 311.808c-13.312 0-24.064-10.752-24.064-24.064v-34.816c0-13.312 10.752-24.064 24.064-24.064s24.064 10.752 24.064 24.064v34.816c0 13.312-10.752 24.064-24.064 24.064z" fill="#333333" p-id="30779"></path><path d="M504.32 806.4c-13.312 0-24.064-10.752-24.064-24.064V747.52c0-13.312 10.752-24.064 24.064-24.064s24.064 10.752 24.064 24.064v34.816c0 13.312-10.752 24.064-24.064 24.064z" fill="#333333" p-id="30780"></path><path d="M274.432 541.696h-34.816c-13.312 0-24.064-10.752-24.064-24.064s10.752-24.064 24.064-24.064h34.816c13.312 0 24.064 10.752 24.064 24.064s-10.752 24.064-24.064 24.064z" fill="#333333" p-id="30781"></path><path d="M769.024 541.696h-34.816c-13.312 0-24.064-10.752-24.064-24.064s10.752-24.064 24.064-24.064h34.816c13.312 0 24.064 10.752 24.064 24.064s-10.752 24.064-24.064 24.064z" fill="#333333" p-id="30782"></path></svg>