<?xml version="1.0" standalone="no"?><!DOCTYPE svg PUBLIC "-//W3C//DTD SVG 1.1//EN" "http://www.w3.org/Graphics/SVG/1.1/DTD/svg11.dtd"><svg t="1677070869379" class="icon" viewBox="0 0 1024 1024" version="1.1" xmlns="http://www.w3.org/2000/svg" p-id="41841" xmlns:xlink="http://www.w3.org/1999/xlink" width="128" ><path d="M664.7 344.5c-74.9-0.7-142.9 28.2-193.2 75.9-0.9 0.9-2.3 1-3.4 0.4-37.2-21.4-80.3-33.7-126.3-33.9-140.6-0.5-254.6 111.6-256.4 252.2C83.5 781.8 198.6 898 340.9 898h321c152.7 0 276.5-123.7 276.8-276.3 0.2-151.4-122.5-275.7-274-277.2z" fill="#009F72" p-id="41842"></path><path d="M223.5 364.6c37.2-15.7 76.7-23.7 117.4-23.7 41.8 0 83 8.7 120.9 25.3 0.9 0.4 2 0.3 2.9-0.4 56.3-43.6 125.1-67.3 197.2-67.3 15 0 29.9 1 44.6 3 1.7-2 1.4-1.7 3.1-3.8-35.9-97.8-130-167.7-240.3-167.7-133.8 0-243.9 103-255 234-0.2 2.2 2 3.7 4 2.8 1.7-0.7 3.5-1.5 5.2-2.2z" fill="#F9DB88" p-id="41843"></path></svg>