<?xml version="1.0" standalone="no"?><!DOCTYPE svg PUBLIC "-//W3C//DTD SVG 1.1//EN" "http://www.w3.org/Graphics/SVG/1.1/DTD/svg11.dtd"><svg t="1677773390221" class="icon" viewBox="0 0 1024 1024" version="1.1" xmlns="http://www.w3.org/2000/svg" p-id="17546" xmlns:xlink="http://www.w3.org/1999/xlink" width="64" height="64"><path d="M170.666667 284.444444a56.888889 56.888889 0 0 0-56.888889 56.888889v512a56.888889 56.888889 0 0 0 56.888889 56.888889h682.666666a56.888889 56.888889 0 0 0 56.888889-56.888889V341.333333a56.888889 56.888889 0 0 0-56.888889-56.888889H170.666667z m0-113.777777h682.666666a170.666667 170.666667 0 0 1 170.666667 170.666666v512a170.666667 170.666667 0 0 1-170.666667 170.666667H170.666667a170.666667 170.666667 0 0 1-170.666667-170.666667V341.333333a170.666667 170.666667 0 0 1 170.666667-170.666666z" fill="#0082FF" p-id="17547"></path><path d="M284.444444 0m56.888889 0l0 0q56.888889 0 56.888889 56.888889l0 284.444444q0 56.888889-56.888889 56.888889l0 0q-56.888889 0-56.888889-56.888889l0-284.444444q0-56.888889 56.888889-56.888889Z" fill="#0082FF" p-id="17548"></path><path d="M625.777778 0m56.888889 0l0 0q56.888889 0 56.888889 56.888889l0 284.444444q0 56.888889-56.888889 56.888889l0 0q-56.888889 0-56.888889-56.888889l0-284.444444q0-56.888889 56.888889-56.888889Z" fill="#0082FF" p-id="17549"></path><path d="M284.444444 455.111111m56.888889 0l341.333334 0q56.888889 0 56.888889 56.888889l0 0q0 56.888889-56.888889 56.888889l-341.333334 0q-56.888889 0-56.888889-56.888889l0 0q0-56.888889 56.888889-56.888889Z" fill="#0082FF" p-id="17550"></path><path d="M284.444444 682.666667m56.888889 0l341.333334 0q56.888889 0 56.888889 56.888889l0 0q0 56.888889-56.888889 56.888888l-341.333334 0q-56.888889 0-56.888889-56.888888l0 0q0-56.888889 56.888889-56.888889Z" fill="#0082FF" p-id="17551"></path></svg>